<svg width="189" height="326" viewBox="0 0 189 326" fill="none" xmlns="http://www.w3.org/2000/svg">
<path d="M-124 210.571L-125.723 209.556L-126.739 211.279L-125.016 212.294L-124 210.571ZM-76.3168 238.675L-77.3324 240.398L-75.6094 241.414L-74.5938 239.691L-76.3168 238.675ZM-122.984 208.848L-121.969 207.125L-123.692 206.11L-124.707 207.833L-122.984 208.848ZM-75.3013 236.952L-73.5783 237.968L-72.5628 236.245L-74.2858 235.229L-75.3013 236.952ZM-94.4058 160.359L-96.1288 159.344L-97.1443 161.067L-95.4213 162.082L-94.4058 160.359ZM-46.7226 188.463L-47.7381 190.186L-46.0151 191.202L-44.9996 189.479L-46.7226 188.463ZM-93.3902 158.636L-92.3747 156.913L-94.0977 155.898L-95.1132 157.621L-93.3902 158.636ZM-45.7071 186.74L-43.9841 187.756L-42.9686 186.033L-44.6916 185.017L-45.7071 186.74ZM-64.8115 110.147L-66.5345 109.132L-67.55 110.855L-65.827 111.87L-64.8115 110.147ZM-17.1284 138.251L-18.1439 139.974L-16.4209 140.989L-15.4054 139.266L-17.1284 138.251ZM-63.796 108.424L-62.7805 106.701L-64.5035 105.686L-65.519 107.409L-63.796 108.424ZM-16.1128 136.528L-14.3898 137.543L-13.3743 135.82L-15.0973 134.805L-16.1128 136.528ZM-35.2173 59.9351L-36.9403 58.9196L-37.9558 60.6426L-36.2328 61.6581L-35.2173 59.9351ZM12.4659 88.0388L11.4504 89.7618L13.1734 90.7773L14.1889 89.0543L12.4659 88.0388ZM-34.2017 58.2121L-33.1862 56.4891L-34.9092 55.4736L-35.9248 57.1966L-34.2017 58.2121ZM13.4814 86.3158L15.2044 87.3313L16.2199 85.6083L14.4969 84.5928L13.4814 86.3158ZM-5.62301 9.72298L-7.34601 8.70747L-8.36153 10.4305L-6.63852 11.446L-5.62301 9.72298ZM42.0601 37.8267L41.0446 39.5497L42.7676 40.5652L43.7831 38.8422L42.0601 37.8267ZM-4.6075 7.99998L-3.59199 6.27697L-5.31499 5.26146L-6.3305 6.98446L-4.6075 7.99998ZM43.0757 36.1037L44.7987 37.1192L45.8142 35.3962L44.0912 34.3807L43.0757 36.1037ZM19.0495 294.883L17.3265 293.867L16.3109 295.59L18.0339 296.606L19.0495 294.883ZM66.7326 322.986L65.7171 324.709L67.4401 325.725L68.4556 324.002L66.7326 322.986ZM20.065 293.16L21.0805 291.437L19.3575 290.421L18.342 292.144L20.065 293.16ZM67.7481 321.263L69.4711 322.279L70.4866 320.556L68.7636 319.54L67.7481 321.263ZM48.6437 244.67L46.9207 243.655L45.9052 245.378L47.6282 246.393L48.6437 244.67ZM96.3269 272.774L95.3113 274.497L97.0343 275.513L98.0499 273.79L96.3269 272.774ZM49.6592 242.947L50.6747 241.224L48.9517 240.209L47.9362 241.932L49.6592 242.947ZM97.3424 271.051L99.0654 272.067L100.081 270.344L98.3579 269.328L97.3424 271.051ZM78.238 194.458L76.5149 193.443L75.4994 195.166L77.2224 196.181L78.238 194.458ZM125.921 222.562L124.906 224.285L126.629 225.301L127.644 223.578L125.921 222.562ZM79.2535 192.735L80.269 191.012L78.546 189.997L77.5305 191.72L79.2535 192.735ZM126.937 220.839L128.66 221.855L129.675 220.132L127.952 219.116L126.937 220.839ZM107.832 144.246L106.109 143.231L105.094 144.954L106.817 145.969L107.832 144.246ZM155.515 172.35L154.5 174.073L156.223 175.088L157.238 173.365L155.515 172.35ZM108.848 142.523L109.863 140.8L108.14 139.785L107.125 141.508L108.848 142.523ZM156.531 170.627L158.254 171.642L159.269 169.919L157.546 168.904L156.531 170.627ZM137.426 94.0341L135.703 93.0186L134.688 94.7416L136.411 95.7571L137.426 94.0341ZM185.11 122.138L184.094 123.861L185.817 124.876L186.833 123.153L185.11 122.138ZM138.442 92.3111L139.457 90.5881L137.734 89.5726L136.719 91.2956L138.442 92.3111ZM186.125 120.415L187.848 121.43L188.864 119.707L187.141 118.692L186.125 120.415ZM-125.016 212.294L-77.3324 240.398L-75.3013 236.952L-122.984 208.848L-125.016 212.294ZM-124.707 207.833L-125.723 209.556L-122.277 211.587L-121.261 209.864L-124.707 207.833ZM-74.2858 235.229L-121.969 207.125L-124 210.571L-76.3168 238.675L-74.2858 235.229ZM-74.5938 239.691L-73.5783 237.968L-77.0243 235.937L-78.0399 237.66L-74.5938 239.691ZM-95.4213 162.082L-47.7381 190.186L-45.7071 186.74L-93.3902 158.636L-95.4213 162.082ZM-95.1132 157.621L-96.1288 159.344L-92.6828 161.375L-91.6672 159.652L-95.1132 157.621ZM-44.6916 185.017L-92.3747 156.913L-94.4058 160.359L-46.7226 188.463L-44.6916 185.017ZM-44.9996 189.479L-43.9841 187.756L-47.4301 185.725L-48.4456 187.448L-44.9996 189.479ZM-65.827 111.87L-18.1439 139.974L-16.1128 136.528L-63.796 108.424L-65.827 111.87ZM-65.519 107.409L-66.5345 109.132L-63.0885 111.163L-62.073 109.44L-65.519 107.409ZM-15.0973 134.805L-62.7805 106.701L-64.8115 110.147L-17.1284 138.251L-15.0973 134.805ZM-15.4054 139.266L-14.3898 137.543L-17.8358 135.512L-18.8514 137.235L-15.4054 139.266ZM-36.2328 61.6581L11.4504 89.7618L13.4814 86.3158L-34.2017 58.2121L-36.2328 61.6581ZM-35.9248 57.1966L-36.9403 58.9196L-33.4943 60.9506L-32.4787 59.2276L-35.9248 57.1966ZM14.4969 84.5928L-33.1862 56.4891L-35.2173 59.9351L12.4659 88.0388L14.4969 84.5928ZM14.1889 89.0543L15.2044 87.3313L11.7584 85.3003L10.7429 87.0233L14.1889 89.0543ZM-6.63852 11.446L41.0446 39.5497L43.0757 36.1037L-4.6075 7.99998L-6.63852 11.446ZM-6.3305 6.98446L-7.34601 8.70747L-3.90001 10.7385L-2.8845 9.01549L-6.3305 6.98446ZM44.0912 34.3807L-3.59199 6.27697L-5.62301 9.72298L42.0601 37.8267L44.0912 34.3807ZM43.7831 38.8422L44.7987 37.1192L41.3526 35.0882L40.3371 36.8112L43.7831 38.8422ZM18.0339 296.606L65.7171 324.709L67.7481 321.263L20.065 293.16L18.0339 296.606ZM18.342 292.144L17.3265 293.867L20.7725 295.898L21.788 294.175L18.342 292.144ZM68.7636 319.54L21.0805 291.437L19.0495 294.883L66.7326 322.986L68.7636 319.54ZM68.4556 324.002L69.4711 322.279L66.0251 320.248L65.0096 321.971L68.4556 324.002ZM47.6282 246.393L95.3113 274.497L97.3424 271.051L49.6592 242.947L47.6282 246.393ZM47.9362 241.932L46.9207 243.655L50.3667 245.686L51.3822 243.963L47.9362 241.932ZM98.3579 269.328L50.6747 241.224L48.6437 244.67L96.3269 272.774L98.3579 269.328ZM98.0499 273.79L99.0654 272.067L95.6194 270.036L94.6038 271.759L98.0499 273.79ZM77.2224 196.181L124.906 224.285L126.937 220.839L79.2535 192.735L77.2224 196.181ZM77.5305 191.72L76.5149 193.443L79.961 195.474L80.9765 193.751L77.5305 191.72ZM127.952 219.116L80.269 191.012L78.238 194.458L125.921 222.562L127.952 219.116ZM127.644 223.578L128.66 221.855L125.214 219.824L124.198 221.547L127.644 223.578ZM106.817 145.969L154.5 174.073L156.531 170.627L108.848 142.523L106.817 145.969ZM107.125 141.508L106.109 143.231L109.555 145.262L110.571 143.539L107.125 141.508ZM157.546 168.904L109.863 140.8L107.832 144.246L155.515 172.35L157.546 168.904ZM157.238 173.365L158.254 171.642L154.808 169.611L153.792 171.334L157.238 173.365ZM136.411 95.7571L184.094 123.861L186.125 120.415L138.442 92.3111L136.411 95.7571ZM136.719 91.2956L135.703 93.0186L139.149 95.0496L140.165 93.3266L136.719 91.2956ZM187.141 118.692L139.457 90.5881L137.426 94.0341L185.11 122.138L187.141 118.692ZM186.833 123.153L187.848 121.43L184.402 119.399L183.387 121.122L186.833 123.153Z" fill="url(#paint0_angular_89_43)" style="mix-blend-mode:hard-light"/>
<path fill-rule="evenodd" clip-rule="evenodd" d="M-37.8334 28.0978L83.8689 0.464363L111.502 122.167L-37.8334 28.0978ZM-159.536 55.7311L-10.2 149.8L139.136 243.869L17.4334 271.502L-131.902 177.433L-159.536 55.7311Z" fill="url(#paint1_angular_89_43)" style="mix-blend-mode:color-dodge"/>
<defs>
<radialGradient id="paint0_angular_89_43" cx="0" cy="0" r="1" gradientUnits="userSpaceOnUse" gradientTransform="translate(31.0626 165.493) rotate(-59.4856) scale(117.569 110.698)">
<stop stop-color="white"/>
<stop offset="0.5" stop-color="white"/>
<stop offset="1" stop-color="white"/>
</radialGradient>
<radialGradient id="paint1_angular_89_43" cx="0" cy="0" r="1" gradientUnits="userSpaceOnUse" gradientTransform="translate(-10.2 149.8) rotate(-12.7925) scale(124.8)">
<stop stop-color="#5111CC"/>
<stop offset="1" stop-color="#9611CC"/>
</radialGradient>
</defs>
</svg>
