<svg width="94" height="49" viewBox="0 0 94 49" fill="none" xmlns="http://www.w3.org/2000/svg">
<path d="M1.19589 23.8072L1.19581 23.8073L1.19398 23.8133L1.19396 23.8134L1.1939 23.8136L1.19317 23.816L1.1897 23.8275L1.18588 23.8403C1.183 23.8501 1.1794 23.8624 1.17512 23.8772C1.16221 23.9219 1.14318 23.9895 1.11964 24.0782C1.07255 24.2556 1.00745 24.5168 0.937027 24.8469C0.796089 25.5078 0.634537 26.4417 0.553001 27.5298C0.389191 29.7158 0.552124 32.474 1.80253 34.8931L1.81258 34.9126L1.82091 34.9329C2.09383 35.5978 2.77537 36.529 3.57989 37.3267C3.97734 37.7208 4.39048 38.0679 4.77807 38.3242C5.16027 38.5769 5.48079 38.7167 5.71619 38.7554L30.5069 39.1305L30.5143 39.1307L61.9623 40.0696L91.6389 40.256C93.2352 38.3729 93.5169 36.2864 93.3896 34.0714C93.3359 33.1363 93.2106 32.1957 93.0831 31.2382C93.0537 31.0176 93.0242 30.796 92.9954 30.5735C92.8437 29.4003 92.7136 28.2061 92.7528 27.0379C92.7526 26.4454 92.7403 25.8367 92.5058 25.4082L92.4952 25.3889L92.4864 25.3687C91.2944 22.6462 88.0062 17.3463 79.8853 15.3264C76.9757 14.7673 74.2529 14.4021 71.3904 14.5856L71.3745 14.5867H71.3585C71.1044 14.5867 70.8759 14.5098 70.6881 14.4241C70.5067 14.3412 70.3309 14.2341 70.1844 14.1448L70.1733 14.138L70.1439 14.1201L70.1172 14.0984L54.2371 1.13942C54.2369 1.13929 54.2367 1.13916 54.2366 1.13903C53.8774 0.847562 53.3777 0.687823 52.8562 0.687832L52.8531 0.687813L22.6359 0.5C22.6354 0.5 22.6349 0.5 22.6344 0.5C22.3157 0.50003 22.1442 0.509301 21.9709 0.61485L21.9274 0.641345L21.8794 0.658524C14.1594 3.42447 8.98783 9.19453 5.73795 14.3079C4.11481 16.8618 2.97733 19.2422 2.24609 20.9832C1.88062 21.8533 1.61701 22.5628 1.44526 23.0532C1.35939 23.2983 1.2965 23.4886 1.25535 23.6167C1.23477 23.6808 1.21963 23.7293 1.20976 23.7613L1.19891 23.7969L1.19641 23.8053L1.19588 23.807L1.19589 23.8072Z" fill="#F9DD8F" stroke="#747BBF"/>
<path d="M52.9913 5.26105L52.9159 5.19562H20.3234C19.8155 5.19562 19.2914 5.47291 18.8789 5.97546C18.4685 6.47533 18.2022 7.16211 18.2022 7.88859V15.9649C18.2022 16.1592 18.2553 16.2732 18.3007 16.3285C18.3378 16.3738 18.3859 16.4023 18.4657 16.404C21.7044 16.2823 36.8848 16.398 49.485 16.494C56.2147 16.5453 62.2085 16.591 65.2537 16.5919C65.2707 16.5752 65.2913 16.5533 65.3162 16.5248C65.3329 16.5057 65.3498 16.4857 65.3677 16.4643C65.4006 16.3584 65.4161 16.234 65.4065 16.1277C65.3996 16.0528 65.3847 16.0187 65.3782 16.0069L65.3578 15.9945L65.3261 15.9669L52.9913 5.26105ZM53.087 5.1973C53.087 5.19728 53.0863 5.19717 53.0847 5.19702L53.087 5.1973Z" fill="#BBDEF9" stroke="#747BBF"/>
<path d="M91.1159 23.0035C91.0742 22.938 91.0364 22.8789 91.0036 22.8277L87.012 22.6098C84.8971 22.4944 83.1298 24.1157 83 26.1683L92.5683 25.5289C92.5183 25.404 92.4239 25.2092 92.2868 24.956C92.1147 24.6383 91.8997 24.2722 91.6875 23.9225C91.4758 23.5736 91.2695 23.2451 91.1159 23.0035Z" fill="#BBDEF9" stroke="#747BBF"/>
<rect width="8.21968" height="1.5394" rx="0.769698" transform="matrix(-1 0 0 1 25.922 18.8394)" fill="#747BBF"/>
<path d="M43.1545 16.3637V4.90732" stroke="#747BBF"/>
<path d="M66.9553 36.8132C66.9553 43.3436 71.3883 48.6375 76.8567 48.6375C82.3251 48.6375 86.7581 43.3436 86.7581 36.8132C86.7581 30.2828 82.3251 24.9888 76.8567 24.9888C71.3883 24.9888 66.9553 30.2828 66.9553 36.8132Z" fill="#747BBF"/>
<path d="M69.8025 36.8132C69.8025 41.5596 72.9611 45.4073 76.8575 45.4073C80.7539 45.4073 83.9125 41.5596 83.9125 36.8132C83.9125 32.0668 80.7539 28.219 76.8575 28.219C72.9611 28.219 69.8025 32.0668 69.8025 36.8132Z" fill="#ACB7D0"/>
<path d="M74.0843 36.8132C74.0843 38.679 75.326 40.1916 76.8577 40.1916C78.3894 40.1916 79.6311 38.679 79.6311 36.8132C79.6311 34.9473 78.3894 33.4348 76.8577 33.4348C75.326 33.4348 74.0843 34.9473 74.0843 36.8132Z" fill="#747BBF"/>
<path d="M5.79163 36.8132C5.79163 43.3436 10.2246 48.6375 15.693 48.6375C21.1614 48.6375 25.5944 43.3436 25.5944 36.8132C25.5944 30.2828 21.1614 24.9888 15.693 24.9888C10.2246 24.9888 5.79163 30.2828 5.79163 36.8132Z" fill="#747BBF"/>
<path d="M8.63879 36.8132C8.63879 41.5596 11.7974 45.4073 15.6938 45.4073C19.5902 45.4073 22.7488 41.5596 22.7488 36.8132C22.7488 32.0668 19.5902 28.219 15.6938 28.219C11.7974 28.219 8.63879 32.0668 8.63879 36.8132Z" fill="#ACB7D0"/>
<path d="M12.9206 36.8132C12.9206 38.679 14.1623 40.1916 15.694 40.1916C17.2257 40.1916 18.4674 38.679 18.4674 36.8132C18.4674 34.9473 17.2257 33.4348 15.694 33.4348C14.1623 33.4348 12.9206 34.9473 12.9206 36.8132Z" fill="#747BBF"/>
</svg>
