<svg width="95" height="66" viewBox="0 0 95 66" fill="none" xmlns="http://www.w3.org/2000/svg">
<path d="M67.933 45.606L74.9205 45.0125L69.0705 40.265L69.883 38.6825L76.058 42.441L73.133 34.7263L74.2705 33.935L78.1705 40.8585L78.658 32.5504H80.1205L80.608 40.8585L84.3455 33.935L85.6455 34.9241L82.7205 42.441L88.8955 38.8804L89.5455 40.265L83.858 45.0125L90.8455 45.606V47.3863L83.858 47.9797L89.5455 52.5294L88.8955 54.1119L82.7205 50.5513L85.6455 58.0682L84.3455 58.8594L80.608 51.936L79.958 60.4419H78.658L78.1705 51.936L74.2705 58.8594L72.9705 58.0682L76.058 50.5513L69.883 54.1119L69.0705 52.5294L74.758 47.9797L67.933 47.3863V45.606Z" fill="#CED9ED"/>
<path d="M67.7051 46.8095L67.705 46.8012V46.7929C67.705 39.1963 72.7911 32.9872 79.18 32.9872C85.7444 32.9872 90.655 39.41 90.655 46.7929C90.655 54.3894 85.5688 60.5985 79.18 60.5985C72.7788 60.5985 67.8731 54.3759 67.7051 46.8095ZM25.2681 33.8L30.9391 31.0987L24.9308 27.5941C24.9119 27.6219 24.8926 27.6509 24.8729 27.681C24.629 28.0549 24.3432 28.5894 24.1658 29.2373C23.8475 30.3999 23.8536 31.9988 25.2681 33.8ZM93.705 46.7929C93.705 36.7761 87.0845 28.9485 79.18 28.9485C71.2754 28.9485 64.655 36.7761 64.655 46.7929C64.655 56.8096 71.2754 64.6372 79.18 64.6372C87.0845 64.6372 93.705 56.8096 93.705 46.7929Z" fill="#8A8E97" stroke="#747BBF" stroke-width="1.5"/>
<mask id="path-3-inside-1_19_380" fill="white">
<path d="M79.3082 37.1001C83.5332 37.1001 86.9457 41.2541 86.9457 46.3972C86.9457 51.5404 83.5332 55.6944 79.3082 55.6944C75.0832 55.6944 71.6707 51.5404 71.6707 46.3972C71.6707 41.2541 75.0832 37.1001 79.3082 37.1001ZM79.3082 51.936C81.9082 51.936 83.8582 49.3644 83.8582 46.3972C83.8582 43.43 81.7457 40.8585 79.3082 40.8585C76.7082 40.8585 74.7582 43.43 74.7582 46.3972C74.7582 49.3644 76.8707 51.936 79.3082 51.936Z"/>
</mask>
<path d="M79.3082 37.1001C83.5332 37.1001 86.9457 41.2541 86.9457 46.3972C86.9457 51.5404 83.5332 55.6944 79.3082 55.6944C75.0832 55.6944 71.6707 51.5404 71.6707 46.3972C71.6707 41.2541 75.0832 37.1001 79.3082 37.1001ZM79.3082 51.936C81.9082 51.936 83.8582 49.3644 83.8582 46.3972C83.8582 43.43 81.7457 40.8585 79.3082 40.8585C76.7082 40.8585 74.7582 43.43 74.7582 46.3972C74.7582 49.3644 76.8707 51.936 79.3082 51.936Z" fill="#E6E6E6"/>
<path d="M79.3082 35.6001C84.624 35.6001 88.4457 40.715 88.4457 46.3972H85.4457C85.4457 41.7932 82.4424 38.6001 79.3082 38.6001V35.6001ZM88.4457 46.3972C88.4457 52.0794 84.624 57.1944 79.3082 57.1944V54.1944C82.4424 54.1944 85.4457 51.0013 85.4457 46.3972H88.4457ZM79.3082 57.1944C73.9924 57.1944 70.1707 52.0794 70.1707 46.3972H73.1707C73.1707 51.0013 76.174 54.1944 79.3082 54.1944V57.1944ZM70.1707 46.3972C70.1707 40.715 73.9924 35.6001 79.3082 35.6001V38.6001C76.174 38.6001 73.1707 41.7932 73.1707 46.3972H70.1707ZM79.3082 50.436C80.7869 50.436 82.3582 48.8629 82.3582 46.3972H85.3582C85.3582 49.866 83.0294 53.436 79.3082 53.436V50.436ZM82.3582 46.3972C82.3582 45.262 81.9513 44.2136 81.3382 43.4673C80.7211 42.7161 79.9793 42.3585 79.3082 42.3585V39.3585C81.0745 39.3585 82.6078 40.2867 83.6563 41.563C84.7088 42.8443 85.3582 44.5652 85.3582 46.3972H82.3582ZM79.3082 42.3585C77.8294 42.3585 76.2582 43.9316 76.2582 46.3972H73.2582C73.2582 42.9285 75.5869 39.3585 79.3082 39.3585V42.3585ZM76.2582 46.3972C76.2582 47.5324 76.6651 48.5808 77.2782 49.3272C77.8953 50.0784 78.637 50.436 79.3082 50.436V53.436C77.5418 53.436 76.0086 52.5078 74.9601 51.2315C73.9075 49.9502 73.2582 48.2292 73.2582 46.3972H76.2582Z" fill="#8A8E97" mask="url(#path-3-inside-1_19_380)"/>
<path d="M27.8956 42.8247L41.8331 36.0464V25.5405L27.8956 33.5771V42.8247Z" fill="#94989B" stroke="#747BBF" stroke-width="1.5"/>
<mask id="path-6-inside-2_19_380" fill="white">
<path d="M78.4958 17.3188L54.7708 21.4729C62.0832 20.1925 78.4958 17.3188 78.4958 17.3188Z"/>
</mask>
<path d="M78.4958 17.3188L54.7708 21.4729C62.0832 20.1925 78.4958 17.3188 78.4958 17.3188Z" fill="#94989B"/>
<path d="M78.7546 18.7963L55.0296 22.9504L54.5121 19.9953L78.2371 15.8413L78.7546 18.7963ZM54.5121 19.9953C58.1683 19.3552 64.0996 18.3167 69.1168 17.4382C71.6254 16.9989 73.9055 16.5997 75.5584 16.3103C76.3849 16.1656 77.0546 16.0483 77.5176 15.9673C77.7492 15.9267 77.929 15.8952 78.051 15.8739C78.112 15.8632 78.1586 15.855 78.1898 15.8496C78.2055 15.8468 78.2173 15.8448 78.2252 15.8434C78.2292 15.8427 78.2322 15.8422 78.2342 15.8418C78.2351 15.8416 78.2359 15.8415 78.2364 15.8414C78.2366 15.8414 78.2368 15.8413 78.237 15.8413C78.2371 15.8413 78.2371 15.8413 78.4958 17.3188C78.7546 18.7963 78.7545 18.7963 78.7544 18.7964C78.7542 18.7964 78.7541 18.7964 78.7538 18.7965C78.7533 18.7965 78.7526 18.7967 78.7516 18.7968C78.7496 18.7972 78.7466 18.7977 78.7426 18.7984C78.7347 18.7998 78.7229 18.8019 78.7072 18.8046C78.676 18.8101 78.6294 18.8182 78.5684 18.8289C78.4464 18.8503 78.2666 18.8818 78.035 18.9223C77.572 19.0034 76.9023 19.1206 76.0758 19.2653C74.4229 19.5548 72.1428 19.954 69.6342 20.3932C64.617 21.2717 58.6857 22.3102 55.0296 22.9504L54.5121 19.9953Z" fill="#747BBF" mask="url(#path-6-inside-2_19_380)"/>
<path d="M15.9051 13.2792L12.9557 22.4103L32.8924 27.3864L52.7461 32.3418L55.466 16.4882L15.9051 13.2792Z" fill="#ED7899" stroke="#747BBF" stroke-width="1.5"/>
<path d="M59.6511 23.2262L59.2593 16.0969L59.2581 16.0764V16.0558C59.2581 14.9324 58.411 13.9342 57.4288 13.3952C57.2985 13.3408 57.062 13.2745 56.6939 13.2092C56.316 13.1421 55.8417 13.083 55.2794 13.0323C54.1554 12.9308 52.7184 12.8662 51.0733 12.8308C47.785 12.7601 43.7078 12.8072 39.7266 12.9019C35.7474 12.9965 31.8725 13.1384 28.9918 13.2568C27.6203 13.3131 26.4746 13.3641 25.6507 13.402L28.0755 16.5923L39.2654 17.3094L39.3478 17.3147L39.4271 17.3378L59.6511 23.2262Z" fill="#8A8E97" stroke="#747BBF" stroke-width="1.5"/>
<path d="M80.9331 24.9922C76.4507 24.9922 72.3039 27.3332 69.3495 31.2426L79.6522 31.5039L90.6445 31.7827C90.5998 30.2617 89.4146 28.695 87.5316 27.3791C85.4291 25.9099 82.7732 24.9922 80.9331 24.9922Z" fill="#ED7899" stroke="#747BBF" stroke-width="1.5"/>
<path d="M4.07053 44.4191L11.058 43.8257L5.37053 39.0782L6.02053 37.4957L12.358 41.2541L9.27053 33.5394L10.5705 32.7482L14.308 39.6716L14.7955 31.3635H16.258L16.7455 39.6716L20.6455 32.7482L21.9455 33.7373L18.858 41.2541L25.1955 37.6935L25.8455 39.0782L19.9955 43.8257L26.983 44.4191V46.1994L20.158 46.7929L25.8455 51.3426L25.033 52.9251L18.858 49.3644L21.9455 56.8813L20.6455 57.6726L16.7455 50.7491L16.258 59.2551H14.7955L14.308 50.7491L10.408 57.6726L9.27053 56.8813L12.1955 49.3644L6.02053 52.9251L5.37053 51.3426L11.058 46.7929L4.07053 46.1994V44.4191Z" fill="#CED9ED"/>
<path d="M30.1332 45.2104C30.1332 35.1936 23.5128 27.366 15.6082 27.366C7.70359 27.366 1.08318 35.1936 1.08318 45.2104C1.08318 55.2271 7.70359 63.0547 15.6082 63.0547C23.5128 63.0547 30.1332 55.2271 30.1332 45.2104ZM27.0832 45.2104C27.0832 52.8069 21.997 59.016 15.6082 59.016C9.21932 59.016 4.13318 52.8069 4.13318 45.2104C4.13318 37.6138 9.21932 31.4047 15.6082 31.4047C22.1726 31.4047 27.0832 37.8275 27.0832 45.2104Z" fill="#8A8E97" stroke="#747BBF" stroke-width="1.5"/>
<path d="M22.4958 45.2103C22.4958 40.3368 19.2879 36.6632 15.6084 36.6632C11.9288 36.6632 8.72085 40.3368 8.72085 45.2103C8.72085 50.0839 11.9288 53.7575 15.6084 53.7575C19.2879 53.7575 22.4958 50.0839 22.4958 45.2103ZM20.9084 45.2103C20.9084 48.4283 18.769 51.4991 15.6084 51.4991C12.4477 51.4991 10.3083 48.4283 10.3083 45.2103C10.3083 43.5525 10.8971 41.9997 11.8398 40.8522C12.7804 39.7071 14.1158 38.9216 15.6084 38.9216C17.1009 38.9216 18.4363 39.7071 19.3769 40.8522C20.3196 41.9997 20.9084 43.5525 20.9084 45.2103Z" fill="#E6E6E6" stroke="#8A8E97" stroke-width="1.5"/>
<path d="M71.833 30.9679C71.3604 30.3855 71.3604 30.3856 71.3603 30.3856L71.3601 30.3858L71.3593 30.3864L71.3568 30.3884L71.3477 30.3959L71.3133 30.424C71.2835 30.4485 71.2401 30.4842 71.185 30.53C71.0746 30.6217 70.9169 30.7538 70.726 30.9172C70.3445 31.2435 69.8278 31.6963 69.2891 32.2007C68.7521 32.7036 68.1845 33.2659 67.7052 33.8104C67.2464 34.3317 66.8114 34.8995 66.5957 35.4149C66.1806 36.3219 65.888 37.804 65.6689 39.4227C65.4446 41.0799 65.2858 42.9791 65.1736 44.7678C65.0612 46.5584 64.9949 48.2482 64.9566 49.4897C64.9375 50.1107 64.9254 50.6201 64.918 50.9747C64.9143 51.1519 64.9119 51.2905 64.9103 51.385L64.9086 51.493L64.9082 51.5209L64.9081 51.5281L64.9081 51.53L64.9081 51.5305C64.9081 51.5307 64.9081 51.5307 65.658 51.5404L64.9081 51.5307L64.908 51.5404H64.908C64.908 52.1015 64.7406 52.6213 64.4777 52.9582C64.2384 53.2648 63.9256 53.4254 63.4934 53.37L34.4316 48.5633C35.0957 45.9003 35.3552 41.7846 34.0982 36.2301C38.0072 35.9116 40.2457 33.6085 42.2913 31.0951C42.575 30.7465 42.8549 30.3946 43.135 30.0425C45.0509 27.6339 46.9774 25.2119 50.207 23.7376L50.2127 23.735C55.0117 21.4956 60.9597 19.8779 66.0543 18.8197C71.1629 17.7585 75.3258 17.2776 76.5455 17.2776C77.4141 17.2776 78.1281 16.9644 78.4758 16.2549C78.7766 15.6412 78.6961 14.9198 78.5531 14.3439C78.2578 13.155 77.5103 11.8825 77.1723 11.3682L77.1665 11.3593L77.1604 11.3507C74.289 7.23847 70.9641 5.50779 68.3245 4.823C67.2827 4.55272 66.3541 4.44687 65.6099 4.418L66.4803 3.43419C72.8431 3.56744 78.4931 7.49233 81.905 13.5336L81.9061 13.5355C82.0639 13.8131 82.2284 14.0976 82.3951 14.3858C83.021 15.4683 83.6774 16.6036 84.1265 17.6215C84.4114 18.2674 84.5817 18.7999 84.6228 19.1952C84.6642 19.5934 84.5635 19.6723 84.5414 19.6891L84.5249 19.7017L84.5091 19.7151C82.8935 21.0918 79.6115 23.7554 76.7249 26.0815C75.2835 27.243 73.9434 28.3182 72.9637 29.1029C72.4739 29.4953 72.0742 29.815 71.797 30.0367L71.477 30.2923L71.3936 30.359L71.3723 30.376L71.3669 30.3803L71.3656 30.3814L71.3652 30.3816C71.3652 30.3817 71.3651 30.3817 71.833 30.9679ZM71.833 30.9679L71.3604 30.3855L71.3651 30.3817L71.833 30.9679ZM31.1506 23.2876C31.169 23.2186 31.1883 23.1433 31.2079 23.0625C31.3173 22.6117 31.4337 22.0037 31.4703 21.3583C31.5433 20.0692 31.2904 18.9211 30.4131 18.3275C29.8746 18.2564 29.4049 17.9546 29.0078 17.6213C28.5421 17.2305 28.0562 16.6915 27.5441 16.1006C27.4021 15.9368 27.2562 15.7668 27.1059 15.5916C26.1508 14.4787 25.015 13.1551 23.5222 11.8366C20.1753 8.88019 15.0127 5.9362 6.30052 5.99406C6.29628 6.01224 6.29197 6.03084 6.28759 6.04985C6.19794 6.43887 6.0797 6.99974 5.96721 7.68014C5.74155 9.04508 5.54234 10.8714 5.63543 12.7479C5.72888 14.6318 6.1143 16.5081 7.01022 18.0171C7.88992 19.4989 9.2813 20.6634 11.4953 21.135C17.4702 22.4076 22.5264 22.9416 26.0848 23.1574C27.8637 23.2654 29.2676 23.2937 30.224 23.2953C30.6058 23.2959 30.9162 23.2922 31.1506 23.2876Z" fill="#ED7899" stroke="#747BBF" stroke-width="1.5"/>
</svg>
