<svg width="40" height="40" viewBox="0 0 40 40" fill="none" xmlns="http://www.w3.org/2000/svg">
<path fill-rule="evenodd" clip-rule="evenodd" d="M35.0416 20.425C35.0416 28.5022 28.4938 35.05 20.4166 35.05C12.3395 35.05 5.79163 28.5022 5.79163 20.425C5.79163 12.3478 12.3395 5.8 20.4166 5.8C28.4938 5.8 35.0416 12.3478 35.0416 20.425ZM20.4166 29.55C19.8643 29.55 19.4166 29.1023 19.4166 28.55V21.425H12.2916C11.7393 21.425 11.2916 20.9773 11.2916 20.425C11.2916 19.8727 11.7393 19.425 12.2916 19.425H19.4166V12.3C19.4166 11.7477 19.8643 11.3 20.4166 11.3C20.9689 11.3 21.4166 11.7477 21.4166 12.3V19.425H28.5416C29.0939 19.425 29.5416 19.8727 29.5416 20.425C29.5416 20.9773 29.0939 21.425 28.5416 21.425H21.4166V28.55C21.4166 29.1023 20.9689 29.55 20.4166 29.55Z" fill="#222222"/>
</svg>
