<svg width="95" height="71" viewBox="0 0 95 71" fill="none" xmlns="http://www.w3.org/2000/svg">
<path d="M67.3105 51.8256L67.3103 51.8173V51.809C67.3103 44.2124 72.3964 38.0033 78.7853 38.0033C85.3497 38.0033 90.2603 44.4261 90.2603 51.809C90.2603 59.4055 85.1742 65.6146 78.7853 65.6146C72.3842 65.6146 67.4785 59.392 67.3105 51.8256ZM93.3103 51.809C93.3103 41.7922 86.6899 33.9646 78.7853 33.9646C70.8807 33.9646 64.2603 41.7922 64.2603 51.809C64.2603 61.8257 70.8807 69.6533 78.7853 69.6533C86.6899 69.6533 93.3103 61.8257 93.3103 51.809Z" fill="#8A8E97" stroke="#747BBF" stroke-width="1.5"/>
<path d="M29.7999 49.6879C29.7999 39.6712 23.1795 31.8436 15.2749 31.8436C7.37034 31.8436 0.749929 39.6712 0.749929 49.6879C0.749929 59.7047 7.37034 67.5323 15.2749 67.5323C23.1795 67.5323 29.7999 59.7047 29.7999 49.6879ZM26.7499 49.6879C26.7499 57.2845 21.6638 63.4936 15.2749 63.4936C8.88607 63.4936 3.79993 57.2845 3.79993 49.6879C3.79993 42.0914 8.88607 35.8823 15.2749 35.8823C21.8393 35.8823 26.7499 42.3051 26.7499 49.6879Z" fill="#8A8E97" stroke="#747BBF" stroke-width="1.5"/>
<path d="M14.2807 47.9609L36.6222 19.2494L39.0444 21.0196L16.2842 50.2709L14.2807 47.9609Z" fill="#ED7899" stroke="#747BBF" stroke-width="1.5"/>
<path d="M46.3258 53.1361L43.781 53.9551L36.4671 16.2776L39.034 16.5627L46.3258 53.1361Z" fill="#ED7899" stroke="#747BBF" stroke-width="1.5"/>
<path d="M40.6182 47.9092L39.1169 45.0096L69.3205 23.0458L69.8214 26.4079L40.6182 47.9092Z" fill="#ED7899" stroke="#747BBF" stroke-width="1.5"/>
<path d="M66.0977 10.1683L68.0041 6.77012L80.8469 49.8412C80.7718 49.9794 80.6729 50.1514 80.5574 50.3292C80.4228 50.5367 80.2754 50.7371 80.1267 50.8983C79.9723 51.0658 79.8538 51.1503 79.7799 51.1828C79.707 51.2147 79.5732 51.2422 79.3699 51.2362C79.1745 51.2305 78.9601 51.1954 78.752 51.1457C78.578 51.1042 78.4188 51.055 78.2926 51.0119L66.0977 10.1683Z" fill="#ED7899" stroke="#747BBF" stroke-width="1.5"/>
<path d="M54.6594 11.774C54.6594 11.774 63.9753 13.1227 64.811 12.2992C65.6466 11.4757 69.9786 3.1626 69.9786 1.78551C69.9786 0.40841 57.3785 1.2609 57.3785 1.2609" stroke="#747BBF" stroke-width="1.5"/>
<path d="M16.3642 45.7279L16.3765 45.7269L16.4353 45.7245L16.4978 45.711L44.5988 39.6648C44.63 39.6637 44.6798 39.6628 44.7457 39.6646C44.8825 39.6683 45.0866 39.6831 45.3351 39.7294C45.8322 39.822 46.4992 40.0387 47.169 40.5374C48.4775 41.5117 49.9861 43.7135 49.9861 48.7893C49.9861 53.8652 48.4774 56.0646 47.1695 57.0369C46.4999 57.5346 45.833 57.7504 45.336 57.8423C45.0875 57.8883 44.8835 57.9029 44.7467 57.9064C44.6784 57.9081 44.6274 57.9071 44.5965 57.9059C44.5873 57.9056 44.5799 57.9052 44.5744 57.9049L16.4395 54.1378L16.39 54.1311H16.3451L16.3329 54.1307C16.3183 54.1301 16.2921 54.1285 16.2561 54.1251C16.1838 54.1181 16.0735 54.1035 15.9381 54.0731C15.6654 54.012 15.3048 53.89 14.9473 53.6495C14.2755 53.1974 13.4672 52.2278 13.4672 50.0055C13.4671 47.783 14.2768 46.7652 14.9647 46.2734C15.3276 46.014 15.6926 45.8755 15.9669 45.8025C16.1033 45.7662 16.2143 45.7469 16.2869 45.7368C16.3232 45.7318 16.3495 45.7292 16.3642 45.7279Z" fill="#ED7899" stroke="#747BBF" stroke-width="1.5"/>
<path d="M47.5018 48.7854C47.5018 51.9056 45.4491 54.1729 43.2099 54.1729C40.9708 54.1729 38.9181 51.9056 38.9181 48.7854C38.9181 45.6653 40.9708 43.398 43.2099 43.398C45.4491 43.398 47.5018 45.6653 47.5018 48.7854Z" fill="#8A8E97" stroke="#747BBF" stroke-width="1.5"/>
<path d="M29.8835 8.96608C30.0576 8.62632 30.2304 8.32958 30.3655 8.10943L43.5402 10.7412C43.6138 10.9248 43.7049 11.1656 43.794 11.4364C44.0023 12.0702 44.1659 12.7714 44.1357 13.2859C44.1055 13.7995 43.8625 14.4642 43.5832 15.0546C43.4749 15.2835 43.3679 15.4876 43.2787 15.6494L30.0158 14.507C29.9086 14.2767 29.7685 13.9586 29.6308 13.5953C29.3384 12.8235 29.097 11.9506 29.1246 11.2885C29.1536 10.595 29.4949 9.72413 29.8835 8.96608Z" fill="#F9E3AE" stroke="#747BBF" stroke-width="1.5"/>
</svg>
