<svg width="93" height="98" viewBox="0 0 93 98" fill="none" xmlns="http://www.w3.org/2000/svg">
<g clip-path="url(#clip0_19_420)">
<path d="M1.34978 71.9272H60.4175V22.4329C60.4175 17.7182 56.8 13.9642 52.4191 13.9642H9.34796C4.96706 13.9642 1.3496 17.7182 1.3496 22.4329L1.34978 71.9272Z" fill="#F9E3AE" stroke="#747BBF" stroke-width="1.5"/>
<path d="M60.4288 43.144V71.8631H90.2512V58.1045C90.2512 56.5553 89.7869 55.0578 88.9421 53.8481L88.9421 53.8481L80.4935 41.7491L80.4934 41.7491C79.3188 40.0667 77.5334 39.111 75.6715 39.111H63.9841C62.0929 39.111 60.4288 40.8405 60.4288 43.144Z" fill="#ED7899" stroke="#747BBF" stroke-width="1.5"/>
<path d="M1.68933 79.9336H90.5586C91.3607 79.9336 92.2595 79.0726 92.2595 77.6711V72.1201C92.2595 72.1201 92.2595 72.12 92.2595 72.12C92.2595 71.9893 92.2159 71.8875 92.1713 71.8327C92.1505 71.8072 92.1344 71.7973 92.1288 71.7945C92.1286 71.7944 92.1284 71.7943 92.1283 71.7943H0.473892C0.400909 71.7943 0.29068 71.8288 0.182014 71.9623L-0.399261 71.4894L0.182007 71.9624C0.0698853 72.1002 -0.0116196 72.3146 -0.0116196 72.5627V77.6713C-0.0116196 79.0728 0.887001 79.9336 1.68933 79.9336Z" fill="#C2CDE7" stroke="#747BBF" stroke-width="1.5"/>
<path d="M84.759 54.9213L84.759 54.9212L77.7028 44.3185L77.7027 44.3183C77.6813 44.2862 77.6614 44.2714 77.6512 44.2656C77.646 44.2626 77.6429 44.2616 77.6416 44.2613H69.3009C69.3006 44.2613 69.3007 44.2613 69.3006 44.2613C69.3004 44.2614 69.2988 44.2618 69.2957 44.2633C69.2893 44.2665 69.2749 44.2754 69.2573 44.296C69.221 44.3385 69.183 44.4177 69.183 44.5265V55.1293C69.183 55.2381 69.221 55.3173 69.2573 55.3598C69.2749 55.3804 69.2893 55.3893 69.2957 55.3925C69.2971 55.3932 69.2983 55.3937 69.2991 55.394C69.3 55.3944 69.3005 55.3945 69.3006 55.3945L69.3006 55.3945C69.3006 55.3945 69.3006 55.3945 69.3009 55.3945H84.6984C84.6987 55.3945 84.6991 55.3945 84.6994 55.3945C84.703 55.3946 84.7063 55.3946 84.7169 55.3865C84.7331 55.3741 84.7622 55.3432 84.7862 55.2859C84.8372 55.1638 84.8263 55.0224 84.759 54.9213Z" fill="#BBDEF9" stroke="#747BBF" stroke-width="1.5"/>
<path d="M88.5987 67.508H90.6512V61.4969H88.5987C87.6825 61.4969 86.909 62.2849 86.909 63.2962V65.7085C86.909 66.72 87.6825 67.508 88.5987 67.508Z" fill="#BBDEF9" stroke="#747BBF" stroke-width="0.7"/>
<path d="M68.8634 83.0916C68.8634 87.346 72.1362 90.7948 76.1735 90.7948C80.2108 90.7948 83.4836 87.346 83.4836 83.0916C83.4836 78.8372 80.2108 75.3885 76.1735 75.3885C72.1362 75.3885 68.8634 78.8374 68.8634 83.0916ZM41.0876 75.3887C45.125 75.3887 48.3978 78.8374 48.3978 83.0918C48.3978 87.3462 45.125 90.795 41.0876 90.795C37.0503 90.795 33.7775 87.3462 33.7775 83.0918C33.7775 78.8374 37.0505 75.3887 41.0876 75.3887ZM20.6803 75.3887C24.7176 75.3887 27.9904 78.8374 27.9904 83.0918C27.9904 87.3462 24.7176 90.795 20.6803 90.795C16.643 90.795 13.3702 87.3462 13.3702 83.0918C13.3702 78.8374 16.643 75.3887 20.6803 75.3887Z" fill="#597B91"/>
<path d="M68.6519 82.9378C68.6519 87.2772 72.1102 90.795 76.3763 90.795C80.6424 90.795 84.1007 87.2772 84.1007 82.9378C84.1007 78.5984 80.6424 75.0807 76.3763 75.0807C72.1102 75.0807 68.6519 78.5984 68.6519 82.9378Z" fill="#747BBF"/>
<path d="M70.873 82.9378C70.873 86.0918 73.3372 88.6485 76.3769 88.6485C79.4166 88.6485 81.8808 86.0918 81.8808 82.9378C81.8808 79.7839 79.4166 77.2271 76.3769 77.2271C73.3372 77.2271 70.873 79.7839 70.873 82.9378Z" fill="#ACB7D0"/>
<path d="M74.2135 82.9378C74.2135 84.1776 75.1822 85.1827 76.3771 85.1827C77.572 85.1827 78.5407 84.1776 78.5407 82.9378C78.5407 81.698 77.572 80.6929 76.3771 80.6929C75.1822 80.6929 74.2135 81.698 74.2135 82.9378Z" fill="#747BBF"/>
<path d="M33.7158 83.0915C33.7158 87.5158 37.1878 91.1024 41.4707 91.1024C45.7537 91.1024 49.2257 87.5158 49.2257 83.0915C49.2257 78.6673 45.7537 75.0807 41.4707 75.0807C37.1878 75.0807 33.7158 78.6673 33.7158 83.0915Z" fill="#747BBF"/>
<path d="M35.9457 83.0916C35.9457 86.3072 38.4196 88.914 41.4714 88.914C44.5231 88.914 46.997 86.3072 46.997 83.0916C46.997 79.8759 44.5231 77.2691 41.4714 77.2691C38.4196 77.2691 35.9457 79.8759 35.9457 83.0916Z" fill="#ACB7D0"/>
<path d="M39.2994 83.0915C39.2994 84.3556 40.2719 85.3804 41.4715 85.3804C42.6712 85.3804 43.6437 84.3556 43.6437 83.0915C43.6437 81.8275 42.6712 80.8027 41.4715 80.8027C40.2719 80.8027 39.2994 81.8275 39.2994 83.0915Z" fill="#747BBF"/>
<path d="M13.1884 83.0915C13.1884 87.5158 16.5715 91.1024 20.7447 91.1024C24.9179 91.1024 28.3009 87.5158 28.3009 83.0915C28.3009 78.6673 24.9179 75.0807 20.7447 75.0807C16.5715 75.0807 13.1884 78.6673 13.1884 83.0915Z" fill="#747BBF"/>
<path d="M15.3612 83.0916C15.3612 86.3072 17.7717 88.914 20.7453 88.914C23.7188 88.914 26.1293 86.3072 26.1293 83.0916C26.1293 79.8759 23.7188 77.2691 20.7453 77.2691C17.7717 77.2691 15.3612 79.8759 15.3612 83.0916Z" fill="#ACB7D0"/>
<path d="M18.6289 83.0915C18.6289 84.3556 19.5765 85.3804 20.7454 85.3804C21.9143 85.3804 22.8619 84.3556 22.8619 83.0915C22.8619 81.8275 21.9143 80.8027 20.7454 80.8027C19.5765 80.8027 18.6289 81.8275 18.6289 83.0915Z" fill="#747BBF"/>
<path d="M76.4148 46.2725C76.5761 46.1349 76.7998 46.1138 76.9737 46.2294C77.2923 46.4411 77.7933 46.8046 78.0647 47.1579C78.337 47.5124 78.5768 48.1155 78.7111 48.4934C78.7836 48.6974 78.7178 48.9253 78.5556 49.0637C78.2135 49.3555 77.6785 49.0788 77.6041 48.6256C77.5531 48.3156 77.4639 48.0135 77.3102 47.814C77.1577 47.6161 76.8984 47.4626 76.6236 47.3464C76.2178 47.1748 76.0721 46.5648 76.4148 46.2725Z" fill="#D3E9FA"/>
<rect x="4.90845" y="39.4594" width="51.9507" height="2.38607" fill="#747BBF"/>
<rect x="4.90845" y="27.6878" width="51.9507" height="2.38607" fill="#747BBF"/>
<rect x="4.90845" y="51.231" width="51.9507" height="2.38607" fill="#747BBF"/>
<rect x="4.90845" y="63.3094" width="51.9507" height="2.38607" fill="#747BBF"/>
</g>
<defs>
<clipPath id="clip0_19_420">
<rect width="93" height="98" fill="white" transform="matrix(-1 0 0 1 93 0)"/>
</clipPath>
</defs>
</svg>
